<svg width="50" height="41" viewBox="0 0 50 41" fill="none" xmlns="http://www.w3.org/2000/svg">
<path d="M17.419 7.71201H13.169V7.63101L14.135 7.93701L10.078 2.88202L7.438 7.74402L8.58098 7.61499H8.726V7.715H5.60201V7.634H7.03499L10.722 0.854004L16.308 7.599H17.419V7.71201Z" fill="#338089"/>
<path d="M0 6.82715V17.0981L32.971 39.6531H1.22299V24.3102H0V40.6021L49.408 40.6342L2.785 8.37213L48.3 8.32715L48.493 36.5971L49.493 36.6131V6.84314L0.761017 6.85913V6.82715H0Z" fill="#338089"/>
<path d="M25.067 33.9539C30.1441 33.9539 34.26 29.838 34.26 24.7609C34.26 19.6837 30.1441 15.5679 25.067 15.5679C19.9898 15.5679 15.874 19.6837 15.874 24.7609C15.874 29.838 19.9898 33.9539 25.067 33.9539Z" fill="#65AAA1" stroke="#707070"/>
</svg>
