<svg width="53" height="63" viewBox="0 0 53 63" fill="none" xmlns="http://www.w3.org/2000/svg">
<path d="M52.551 61.8222L38.618 61.7742L17.353 30.7112L2.94503 60.6292L9.08403 60.6612L32.942 60.7252L32.958 61.8252L9.06803 61.6822L1.14703 61.6502L19.802 21.5342L47.111 60.7882L52.551 60.8042V61.8222Z" fill="#338089" stroke="#707070" stroke-width="0.5"/>
<path d="M26.371 10.9893H22.124L14.024 16.3492L14.04 11.5623L17.126 11.5463V10.9893H13.309L13.277 20.8983L25.413 12.1342L25.397 22.8063L30.932 30.9973L31.664 30.5043L26.399 22.6633L26.371 10.9893Z" fill="#338089" stroke="#707070" stroke-width="0.5"/>
<path d="M21.8407 7.65517C23.2913 5.93476 23.3342 3.58482 21.9365 2.40643C20.5389 1.22804 18.23 1.66744 16.7795 3.38785C15.3289 5.10826 15.286 7.4582 16.6837 8.63659C18.0813 9.81498 20.3902 9.37558 21.8407 7.65517Z" fill="#65AAA1" stroke="#707070" stroke-width="0.500312"/>
</svg>
