<svg width="77" height="43" viewBox="0 0 77 43" fill="none" xmlns="http://www.w3.org/2000/svg">
<path d="M37.541 34.7441C53.167 34.7441 65.835 36.3611 65.835 38.3571C65.835 40.3531 53.167 41.9691 37.541 41.9691C21.915 41.9691 9.246 40.3521 9.246 38.3571C9.246 36.3621 21.914 34.7441 37.541 34.7441Z" fill="#65AAA1" stroke="#707070" stroke-width="0.75"/>
<path d="M23.054 22.0341L21.819 21.8551L36.743 0.934082L36.783 2.5481L37.301 2.82709L37.54 26.0011L36.325 26.2401L36.185 3.72409L23.054 22.0341Z" fill="#338089"/>
<path d="M58.363 36.362H43.08L8.70801 19.944L19.129 35.204L18.153 36.32L0 9.104L58.363 36.362Z" fill="#338089"/>
<path d="M39.732 30.644L68.126 19.944L56.908 35.885L58.3629 36.363L76.834 9.104L32.459 27.296L39.732 30.644Z" fill="#338089"/>
<path d="M48.201 17.9901L47.364 16.7551L36.664 0.934082L36.564 3.14609L37.819 4.78009L46.547 17.3931L47.3839 18.5931L48.201 17.9901Z" fill="#338089"/>
<path d="M34.372 35.187V36.323H18.132V35.167L34.372 35.187Z" fill="#338089"/>
</svg>
